<?xml version="1.0" encoding="UTF-8"?>
<!DOCTYPE svg PUBLIC "-//W3C//DTD SVG 1.1//EN" "http://www.w3.org/Graphics/SVG/1.1/DTD/svg11.dtd">
<svg xmlns="http://www.w3.org/2000/svg" version="1.1" width="700px" height="700px" style="shape-rendering:geometricPrecision; text-rendering:geometricPrecision; image-rendering:optimizeQuality; fill-rule:evenodd; clip-rule:evenodd" xmlns:xlink="http://www.w3.org/1999/xlink">
<g><path style="opacity:1" fill="#fefefe" d="M -0.5,-0.5 C 232.833,-0.5 466.167,-0.5 699.5,-0.5C 699.5,232.833 699.5,466.167 699.5,699.5C 466.167,699.5 232.833,699.5 -0.5,699.5C -0.5,466.167 -0.5,232.833 -0.5,-0.5 Z"/></g>
<g><path style="opacity:1" fill="#020202" d="M 80.5,164.5 C 79.5051,305.856 79.1718,447.023 79.5,588C 80.7592,591.544 82.0925,595.044 83.5,598.5C 82.6236,598.631 81.9569,598.298 81.5,597.5C 80.5682,595.205 79.7348,592.871 79,590.5C 78.8333,519.5 78.6667,448.5 78.5,377.5C 78.5,306.164 79.1667,235.164 80.5,164.5 Z"/></g>
<g><path style="opacity:1" fill="#010101" d="M 63.5,140.5 C 58.9665,148.935 56.1332,157.935 55,167.5C 54.8331,307.334 54.3331,447.001 53.5,586.5C 53.3333,446.5 53.5,306.5 54,166.5C 54.7212,156.827 57.8878,148.16 63.5,140.5 Z"/></g>
<g><path style="opacity:1" fill="#000000" d="M 134.5,263.5 C 219.999,262.334 305.666,262.168 391.5,263C 393.584,263.697 395.251,264.864 396.5,266.5C 396.565,266.938 396.399,267.272 396,267.5C 394.421,265.959 392.587,264.792 390.5,264C 305.167,263.5 219.834,263.333 134.5,263.5 Z"/></g>
<g><path style="opacity:1" fill="#171717" d="M 594.5,78.5 C 600.447,78.9035 606.113,80.4035 611.5,83C 625.225,93.0568 639.225,102.724 653.5,112C 663.185,118.014 670.351,126.181 675,136.5C 676.263,144.168 675.263,151.501 672,158.5C 631.388,216.112 590.388,273.445 549,330.5C 508.913,388.342 468.58,446.008 428,503.5C 422.126,509.043 415.959,514.21 409.5,519C 375.5,540.667 341.5,562.333 307.5,584C 300.177,587.677 294.011,586.177 289,579.5C 287.595,575.928 287.262,572.261 288,568.5C 299.405,530.951 310.405,493.285 321,455.5C 322.839,448.821 325.506,442.488 329,436.5C 409,323.167 489,209.833 569,96.5C 572.465,92.0332 576.298,87.8666 580.5,84C 585.017,81.4455 589.684,79.6121 594.5,78.5 Z"/></g>
<g><path style="opacity:1" fill="#fdfdfd" d="M 550.5,169.5 C 553.94,171.055 557.273,172.888 560.5,175C 574.948,185.114 589.115,195.614 603,206.5C 603.315,207.908 602.982,209.241 602,210.5C 597.396,216.722 592.563,222.722 587.5,228.5C 579.34,222.586 571.007,216.919 562.5,211.5C 501.751,295.416 441.585,379.749 382,464.5C 372.38,457.937 363.214,450.77 354.5,443C 418.984,351.187 484.318,260.02 550.5,169.5 Z"/></g>
<g><path style="opacity:1" fill="#fdfdfd" d="M 596.5,105.5 C 614.288,118.115 631.955,130.948 649.5,144C 639.61,157.627 629.61,171.127 619.5,184.5C 607.008,175.42 594.341,166.587 581.5,158C 576.461,154.474 571.794,150.474 567.5,146C 577.054,132.383 586.72,118.883 596.5,105.5 Z"/></g>
<g><path style="opacity:1" fill="#181818" d="M 134.5,263.5 C 219.834,263.333 305.167,263.5 390.5,264C 392.587,264.792 394.421,265.959 396,267.5C 396.399,267.272 396.565,266.938 396.5,266.5C 399.862,271.082 400.362,276.082 398,281.5C 397.34,283.324 396.173,284.657 394.5,285.5C 394.44,284.957 394.107,284.624 393.5,284.5C 392.205,285.098 390.872,285.598 389.5,286C 304.666,286.167 219.999,286.667 135.5,287.5C 126.439,282.812 124.273,275.812 129,266.5C 130.488,264.84 132.321,263.84 134.5,263.5 Z"/></g>
<g><path style="opacity:1" fill="#000000" d="M 394.5,285.5 C 393.234,286.09 391.901,286.59 390.5,287C 305.501,287.5 220.501,287.667 135.5,287.5C 219.999,286.667 304.666,286.167 389.5,286C 390.872,285.598 392.205,285.098 393.5,284.5C 394.107,284.624 394.44,284.957 394.5,285.5 Z"/></g>
<g><path style="opacity:1" fill="#181818" d="M 222.5,141.5 C 196.997,140.171 171.33,140.171 145.5,141.5C 145.624,142.107 145.957,142.44 146.5,142.5C 149.836,156.331 158.17,165.498 171.5,170C 179.902,178.237 179.235,185.57 169.5,192C 161.67,193.881 154.337,192.548 147.5,188C 131.685,176.558 122.352,161.058 119.5,141.5C 106.395,139.691 95.2282,143.357 86,152.5C 83.342,156.148 81.5086,160.148 80.5,164.5C 79.1667,235.164 78.5,306.164 78.5,377.5C 78.6667,448.5 78.8333,519.5 79,590.5C 79.7348,592.871 80.5682,595.205 81.5,597.5C 81.9569,598.298 82.6236,598.631 83.5,598.5C 87.647,604.316 92.9803,608.649 99.5,611.5C 99.0618,611.435 98.7284,611.601 98.5,612C 101.377,613.127 104.377,613.794 107.5,614C 218.5,614.667 329.5,614.667 440.5,614C 443.289,613.759 445.956,613.092 448.5,612C 448.272,611.601 447.938,611.435 447.5,611.5C 453.88,609.314 459.213,605.647 463.5,600.5C 464.496,600.586 465.329,600.252 466,599.5C 469.124,594.585 471.124,589.252 472,583.5C 473.645,546.274 473.811,509.107 472.5,472C 474.311,470.959 474.645,469.793 473.5,468.5C 480.593,458.645 487.926,448.979 495.5,439.5C 496.667,489.163 496.833,538.83 496,588.5C 491.463,614.203 476.629,630.537 451.5,637.5C 449.336,636.722 447.17,636.388 445,636.5C 330.736,637.166 216.569,637.832 102.5,638.5C 73.8006,632.801 57.4672,615.468 53.5,586.5C 54.3331,447.001 54.8331,307.334 55,167.5C 56.1332,157.935 58.9665,148.935 63.5,140.5C 72.5644,126.317 85.5644,117.817 102.5,115C 108.157,114.501 113.824,114.334 119.5,114.5C 121.585,90.6195 133.252,73.4529 154.5,63C 182.369,56.3483 202.869,65.8483 216,91.5C 218.504,98.6856 220.504,106.019 222,113.5C 225.436,95.4576 233.936,80.2909 247.5,68C 273.129,53.926 295.295,58.0927 314,80.5C 320.572,90.5479 324.572,101.548 326,113.5C 328.032,94.9299 336.199,79.7632 350.5,68C 377.09,53.6515 399.924,58.1515 419,81.5C 425.913,91.0736 429.746,101.74 430.5,113.5C 464.922,114.445 486.422,131.445 495,164.5C 495.667,166.833 495.667,169.167 495,171.5C 485.69,182.122 477.357,193.456 470,205.5C 468.687,193.656 468.02,181.656 468,169.5C 464.231,153.062 454.064,143.562 437.5,141C 409.161,140.167 380.827,140.333 352.5,141.5C 355.766,151.921 362.1,159.755 371.5,165C 383.8,166.101 388.3,172.601 385,184.5C 381.383,189.32 376.55,191.32 370.5,190.5C 358.92,189.625 349.42,184.625 342,175.5C 333.563,165.291 328.396,153.625 326.5,140.5C 300.498,140.333 274.498,140.5 248.5,141C 250.633,150.469 255.299,158.469 262.5,165C 267.113,166.791 271.78,168.457 276.5,170C 280.799,175.237 281.632,181.07 279,187.5C 272.111,194.152 264.277,195.318 255.5,191C 249.214,188.275 243.714,184.442 239,179.5C 229.535,168.623 224.035,155.956 222.5,141.5 Z"/></g>
<g><path style="opacity:1" fill="#605f5f" d="M 222.5,141.5 C 196.995,141.169 171.661,141.502 146.5,142.5C 145.957,142.44 145.624,142.107 145.5,141.5C 171.33,140.171 196.997,140.171 222.5,141.5 Z"/></g>
<g><path style="opacity:1" fill="#fcfcfc" d="M 168.5,86.5 C 179.955,86.4466 187.788,91.7799 192,102.5C 193.477,106.43 194.644,110.43 195.5,114.5C 178.497,114.667 161.497,114.5 144.5,114C 147.104,104.111 152.437,96.1109 160.5,90C 163.158,88.522 165.825,87.3554 168.5,86.5 Z"/></g>
<g><path style="opacity:1" fill="#fdfdfd" d="M 373.5,86.5 C 383.654,85.0749 391.821,88.4083 398,96.5C 401.157,101.644 403.323,107.144 404.5,113C 387.17,113.5 369.837,113.667 352.5,113.5C 354.683,100.661 361.683,91.6613 373.5,86.5 Z"/></g>
<g><path style="opacity:1" fill="#fcfcfc" d="M 268.5,86.5 C 286.61,86.2691 296.61,95.2691 298.5,113.5C 282.167,113.5 265.833,113.5 249.5,113.5C 251.618,101.405 257.952,92.4046 268.5,86.5 Z"/></g>
<g><path style="opacity:1" fill="#040403" d="M 342.5,343.5 C 342.389,344.117 342.056,344.617 341.5,345C 272.5,345.333 203.5,345.667 134.5,346C 132,347.167 130.167,349 129,351.5C 128.536,350.906 128.369,350.239 128.5,349.5C 130.263,346.444 132.93,344.611 136.5,344C 205.166,343.5 273.833,343.333 342.5,343.5 Z"/></g>
<g><path style="opacity:1" fill="#181818" d="M 342.5,343.5 C 350.4,344.738 354.4,349.405 354.5,357.5C 353.565,364.098 349.899,368.098 343.5,369.5C 309.507,368.167 275.173,367.5 240.5,367.5C 205.827,367.5 171.493,368.167 137.5,369.5C 127.368,365.91 124.368,359.244 128.5,349.5C 128.369,350.239 128.536,350.906 129,351.5C 130.167,349 132,347.167 134.5,346C 203.5,345.667 272.5,345.333 341.5,345C 342.056,344.617 342.389,344.117 342.5,343.5 Z"/></g>
<g><path style="opacity:1" fill="#030403" d="M 343.5,369.5 C 274.833,369.5 206.167,369.5 137.5,369.5C 171.493,368.167 205.827,367.5 240.5,367.5C 275.173,367.5 309.507,368.167 343.5,369.5 Z"/></g>
<g><path style="opacity:1" fill="#171717" d="M 297.5,446.5 C 297.44,445.957 297.107,445.624 296.5,445.5C 295.205,446.098 293.872,446.598 292.5,447C 239.833,447.667 187.167,447.667 134.5,447C 131.272,445.437 129.105,442.937 128,439.5C 127.601,439.728 127.435,440.062 127.5,440.5C 124.755,432.811 127.421,427.311 135.5,424C 187.833,423.333 240.167,423.333 292.5,424C 301.063,427.014 303.897,432.847 301,441.5C 299.97,443.346 298.804,445.013 297.5,446.5 Z"/></g>
<g><path style="opacity:1" fill="#070807" d="M 297.5,446.5 C 295.363,447.787 293.03,448.621 290.5,449C 238.833,449.667 187.167,449.667 135.5,449C 131.252,447.587 128.585,444.754 127.5,440.5C 127.435,440.062 127.601,439.728 128,439.5C 129.105,442.937 131.272,445.437 134.5,447C 187.167,447.667 239.833,447.667 292.5,447C 293.872,446.598 295.205,446.098 296.5,445.5C 297.107,445.624 297.44,445.957 297.5,446.5 Z"/></g>
<g><path style="opacity:1" fill="#fcfcfc" d="M 344.5,463.5 C 345.552,463.351 346.552,463.517 347.5,464C 362.644,475.643 377.644,487.476 392.5,499.5C 372.799,512.681 352.799,525.348 332.5,537.5C 330.303,537.152 328.47,536.152 327,534.5C 326.333,531.5 326.333,528.5 327,525.5C 333.404,504.973 339.237,484.307 344.5,463.5 Z"/></g>
<g><path style="opacity:1" fill="#050505" d="M 473.5,468.5 C 474.645,469.793 474.311,470.959 472.5,472C 473.811,509.107 473.645,546.274 472,583.5C 471.124,589.252 469.124,594.585 466,599.5C 465.329,600.252 464.496,600.586 463.5,600.5C 467.942,594.606 470.442,587.94 471,580.5C 471.333,543.833 471.667,507.167 472,470.5C 472.717,469.956 473.217,469.289 473.5,468.5 Z"/></g>
<g><path style="opacity:1" fill="#191919" d="M 137.5,502.5 C 137.611,503.117 137.944,503.617 138.5,504C 157.5,504.167 176.5,504.333 195.5,504.5C 214.845,504.5 233.845,503.833 252.5,502.5C 263.446,506.835 265.946,514.169 260,524.5C 258.581,525.46 257.081,526.293 255.5,527C 235.395,528.149 215.229,528.649 195,528.5C 175.833,528.333 156.667,528.167 137.5,528C 128.533,525.579 125.033,519.746 127,510.5C 128.744,505.543 132.244,502.876 137.5,502.5 Z"/></g>
<g><path style="opacity:1" fill="#030304" d="M 137.5,502.5 C 175.833,502.5 214.167,502.5 252.5,502.5C 233.845,503.833 214.845,504.5 195.5,504.5C 176.5,504.333 157.5,504.167 138.5,504C 137.944,503.617 137.611,503.117 137.5,502.5 Z"/></g>
<g><path style="opacity:1" fill="#212121" d="M 99.5,611.5 C 215.523,612.828 331.523,612.828 447.5,611.5C 447.938,611.435 448.272,611.601 448.5,612C 445.956,613.092 443.289,613.759 440.5,614C 329.5,614.667 218.5,614.667 107.5,614C 104.377,613.794 101.377,613.127 98.5,612C 98.7284,611.601 99.0618,611.435 99.5,611.5 Z"/></g>
<g><path style="opacity:1" fill="#0b0b0b" d="M 451.5,637.5 C 447.837,637.952 444.17,638.452 440.5,639C 327.812,639.825 215.145,639.659 102.5,638.5C 216.569,637.832 330.736,637.166 445,636.5C 447.17,636.388 449.336,636.722 451.5,637.5 Z"/></g>
</svg>
