<?xml version="1.0" encoding="UTF-8"?>
<!DOCTYPE svg PUBLIC "-//W3C//DTD SVG 1.1//EN" "http://www.w3.org/Graphics/SVG/1.1/DTD/svg11.dtd">
<svg xmlns="http://www.w3.org/2000/svg" version="1.1" width="512px" height="512px" style="shape-rendering:geometricPrecision; text-rendering:geometricPrecision; image-rendering:optimizeQuality; fill-rule:evenodd; clip-rule:evenodd" xmlns:xlink="http://www.w3.org/1999/xlink">
<g><path style="opacity:0.985" fill="#000000" d="M 133.5,-0.5 C 139.167,-0.5 144.833,-0.5 150.5,-0.5C 158.973,1.99719 166.14,6.66386 172,13.5C 174.203,16.5534 173.703,19.0534 170.5,21C 162.441,22.4135 154.775,21.4135 147.5,18C 132.466,16.3482 123.132,22.8482 119.5,37.5C 153.168,37.3333 186.835,37.5 220.5,38C 220.793,55.998 225.959,72.498 236,87.5C 245.208,99.0231 257.042,106.356 271.5,109.5C 280.419,106.2 281.753,101.033 275.5,94C 251.092,87.3969 238.759,71.7303 238.5,47C 238.735,22.9727 250.068,7.13936 272.5,-0.5C 278.167,-0.5 283.833,-0.5 289.5,-0.5C 297.984,2.0014 305.151,6.66807 311,13.5C 311.989,20.959 308.656,23.6256 301,21.5C 295.723,22.0757 290.89,20.909 286.5,18C 271.622,16.1895 261.955,22.5229 257.5,37C 298.167,37.3333 338.833,37.6667 379.5,38C 394.077,40.9107 403.077,49.5774 406.5,64C 402.554,82.2844 398.22,100.451 393.5,118.5C 392.5,119.333 391.5,120.167 390.5,121C 267.167,121.667 143.833,121.667 20.5,121C 18.6711,120.727 17.1711,119.893 16,118.5C 14.8587,109.263 14.3587,99.9292 14.5,90.5C 14.3849,80.4438 14.8849,70.4438 16,60.5C 20.7454,48.2073 29.5788,40.7073 42.5,38C 55.5,37.3333 68.5,37.3333 81.5,38C 82,38.5 82.5,39 83,39.5C 81.8344,70.0279 94.6678,92.1945 121.5,106C 125.273,107.369 129.106,108.536 133,109.5C 140.56,107.058 142.56,102.391 139,95.5C 113.983,88.8327 100.816,72.4993 99.5,46.5C 100.196,22.8466 111.529,7.17995 133.5,-0.5 Z"/></g>
<g><path style="opacity:0.004" fill="#fefffe" d="M 443.5,9.5 C 444.833,10.1667 444.833,10.1667 443.5,9.5 Z"/></g>
<g><path style="opacity:0.004" fill="#fefffe" d="M 10.5,16.5 C 11.8333,17.1667 11.8333,17.1667 10.5,16.5 Z"/></g>
<g><path style="opacity:0.004" fill="#fefffe" d="M 8.5,19.5 C 9.83333,20.1667 9.83333,20.1667 8.5,19.5 Z"/></g>
<g><path style="opacity:0.004" fill="#fefffe" d="M 151.5,22.5 C 152.833,23.1667 152.833,23.1667 151.5,22.5 Z"/></g>
<g><path style="opacity:0.989" fill="#000000" d="M 440.5,54.5 C 455.146,55.7292 469.48,58.5626 483.5,63C 491.985,68.3028 496.319,75.9695 496.5,86C 476.126,187.036 454.793,287.87 432.5,388.5C 430.891,389.888 429.058,390.888 427,391.5C 404.836,386.667 382.669,381.834 360.5,377C 358.556,375.278 357.556,373.111 357.5,370.5C 378.475,270.793 399.641,171.126 421,71.5C 424.936,62.7207 431.436,57.054 440.5,54.5 Z"/></g>
<g><path style="opacity:0.004" fill="#fefffe" d="M 494.5,55.5 C 495.833,56.1667 495.833,56.1667 494.5,55.5 Z"/></g>
<g><path style="opacity:0.004" fill="#fefffe" d="M 423.5,56.5 C 424.833,57.1667 424.833,57.1667 423.5,56.5 Z"/></g>
<g><path style="opacity:0.004" fill="#fefffe" d="M 10.5,69.5 C 11.8333,70.1667 11.8333,70.1667 10.5,69.5 Z"/></g>
<g><path style="opacity:0.004" fill="#fefffe" d="M 400.5,106.5 C 401.833,107.167 401.833,107.167 400.5,106.5 Z"/></g>
<g><path style="opacity:0.004" fill="#fefffe" d="M 491.5,128.5 C 492.833,129.167 492.833,129.167 491.5,128.5 Z"/></g>
<g><path style="opacity:0.004" fill="#fefffe" d="M 93.5,135.5 C 94.8333,136.167 94.8333,136.167 93.5,135.5 Z"/></g>
<g><path style="opacity:0.995" fill="#000000" d="M 378.5,511.5 C 265.833,511.5 153.167,511.5 40.5,511.5C 27.0766,507.241 18.5766,498.241 15,484.5C 14.3333,370.5 14.3333,256.5 15,142.5C 16.5429,140.622 18.3762,139.122 20.5,138C 140.833,137.333 261.167,137.333 381.5,138C 386.053,139.225 388.387,142.225 388.5,147C 370.127,231.699 352.46,316.533 335.5,401.5C 337.38,420.923 339.88,440.257 343,459.5C 349.945,476.081 362.445,485.581 380.5,488C 388.954,496.741 388.287,504.574 378.5,511.5 Z M 53.5,202.5 C 59.2617,202.149 64.9284,202.649 70.5,204C 76.061,209.015 75.7277,213.682 69.5,218C 63.0559,218.915 56.7226,218.581 50.5,217C 45.8698,210.939 46.8698,206.105 53.5,202.5 Z M 104.5,202.5 C 178.167,202.333 251.834,202.5 325.5,203C 333.247,207.199 333.914,212.199 327.5,218C 252.833,218.667 178.167,218.667 103.5,218C 96.7544,212.512 97.0878,207.346 104.5,202.5 Z M 104.5,266.5 C 164.168,266.333 223.834,266.5 283.5,267C 291.084,271.63 291.418,276.63 284.5,282C 224.167,282.667 163.833,282.667 103.5,282C 96.7544,276.512 97.0878,271.346 104.5,266.5 Z M 55.5,351.5 C 61.0487,351.087 66.382,351.92 71.5,354C 75.8174,360.712 74.1507,365.378 66.5,368C 61.4107,368.826 56.4107,368.492 51.5,367C 45.2614,359.812 46.5947,354.646 55.5,351.5 Z M 106.5,351.5 C 171.834,351.333 237.168,351.5 302.5,352C 309.05,353.213 311.55,357.047 310,363.5C 308.363,365.81 306.196,367.31 303.5,368C 237.5,368.667 171.5,368.667 105.5,368C 99.1486,365.799 97.3153,361.632 100,355.5C 101.792,353.372 103.958,352.039 106.5,351.5 Z M 106.5,415.5 C 164.834,415.333 223.168,415.5 281.5,416C 290.308,419.045 291.641,424.045 285.5,431C 284.167,431.333 282.833,431.667 281.5,432C 222.833,432.667 164.167,432.667 105.5,432C 99.1486,429.799 97.3153,425.632 100,419.5C 101.792,417.372 103.958,416.039 106.5,415.5 Z"/></g>
<g><path style="opacity:0.004" fill="#fefffe" d="M 482.5,217.5 C 483.833,218.167 483.833,218.167 482.5,217.5 Z"/></g>
<g><path style="opacity:0.004" fill="#fefffe" d="M 471.5,258.5 C 472.833,259.167 472.833,259.167 471.5,258.5 Z"/></g>
<g><path style="opacity:0.004" fill="#fefffe" d="M 486.5,296.5 C 487.833,297.167 487.833,297.167 486.5,296.5 Z"/></g>
<g><path style="opacity:0.004" fill="#fefffe" d="M 355.5,375.5 C 356.833,376.167 356.833,376.167 355.5,375.5 Z"/></g>
<g><path style="opacity:0.977" fill="#000000" d="M 355.5,393.5 C 378.27,397.358 400.937,401.858 423.5,407C 427.26,411.565 427.427,416.399 424,421.5C 416,434.833 408,448.167 400,461.5C 391.421,470.742 381.254,472.909 369.5,468C 364.95,465.117 361.45,461.284 359,456.5C 355.423,437.303 353.089,417.969 352,398.5C 352.997,396.677 354.164,395.01 355.5,393.5 Z"/></g>
<g><path style="opacity:0.004" fill="#fefffe" d="M 453.5,436.5 C 454.833,437.167 454.833,437.167 453.5,436.5 Z"/></g>
<g><path style="opacity:0.004" fill="#fefffe" d="M 436.5,507.5 C 437.833,508.167 437.833,508.167 436.5,507.5 Z"/></g>
</svg>
